HIERARCHY
ROOT mixamorig:Hips
{
	OFFSET 0.000000 201.639420 0.000000
	CHANNELS 6 Xposition Yposition Zposition Xrotation Yrotation Zrotation
	JOINT mixamorig:Spine
	{
		OFFSET 0.006200 19.524994 -2.481800
		CHANNELS 3 Xrotation Yrotation Zrotation
		JOINT mixamorig:Spine1
		{
			OFFSET -0.000900 22.835007 -2.825400
			CHANNELS 3 Xrotation Yrotation Zrotation
			JOINT mixamorig:Spine2
			{
				OFFSET -0.020600 26.552490 -3.193300
				CHANNELS 3 Xrotation Yrotation Zrotation
				JOINT mixamorig:Neck
				{
					OFFSET -0.060000 30.701813 1.352200
					CHANNELS 3 Xrotation Yrotation Zrotation
					JOINT mixamorig:Head
					{
						OFFSET -0.087200 22.547607 3.670900
						CHANNELS 3 Xrotation Yrotation Zrotation
						JOINT mixamorig:HeadTop_End
						{
							OFFSET -0.830600 40.355194 7.893500
							CHANNELS 3 Xrotation Yrotation Zrotation
							End Site
							{
								OFFSET 0.000000 30.592346 0.000000
							}
						}
						JOINT mixamorig:RightEye
						{
							OFFSET -6.302100 18.118591 16.197100
							CHANNELS 3 Xrotation Yrotation Zrotation
							End Site
							{
								OFFSET 0.000000 30.592346 0.000000
							}
						}
						JOINT mixamorig:LeftEye
						{
							OFFSET 6.741500 18.382690 16.401899
							CHANNELS 3 Xrotation Yrotation Zrotation
							End Site
							{
								OFFSET 0.000000 30.592346 0.000000
							}
						}
					}
				}
				JOINT mixamorig:LeftShoulder
				{
					OFFSET 11.924900 18.230499 1.425400
					CHANNELS 3 Xrotation Yrotation Zrotation
					JOINT mixamorig:LeftArm
					{
						OFFSET 25.435989 -0.697632 -5.229300
						CHANNELS 3 Xrotation Yrotation Zrotation
						JOINT mixamorig:LeftForeArm
						{
							OFFSET 54.684776 0.000000 0.000000
							CHANNELS 3 Xrotation Yrotation Zrotation
							JOINT mixamorig:LeftHand
							{
								OFFSET 55.098175 0.000000 0.000000
								CHANNELS 3 Xrotation Yrotation Zrotation
								JOINT mixamorig:LeftHandMiddle1
								{
									OFFSET 23.369751 0.000000 0.000000
									CHANNELS 3 Xrotation Yrotation Zrotation
									JOINT mixamorig:LeftHandMiddle2
									{
										OFFSET 6.378677 0.000000 0.000000
										CHANNELS 3 Xrotation Yrotation Zrotation
										JOINT mixamorig:LeftHandMiddle3
										{
											OFFSET 6.148331 0.000000 0.000000
											CHANNELS 3 Xrotation Yrotation Zrotation
											JOINT mixamorig:LeftHandMiddle4
											{
												OFFSET 6.582504 0.000000 0.000000
												CHANNELS 3 Xrotation Yrotation Zrotation
												End Site
												{
													OFFSET -1.168900 6.395691 1.028606
												}
											}
										}
									}
								}
								JOINT mixamorig:LeftHandThumb1
								{
									OFFSET 7.235672 -3.848206 5.434273
									CHANNELS 3 Xrotation Yrotation Zrotation
									JOINT mixamorig:LeftHandThumb2
									{
										OFFSET 6.568451 -3.792297 3.792300
										CHANNELS 3 Xrotation Yrotation Zrotation
										JOINT mixamorig:LeftHandThumb3
										{
											OFFSET 6.063080 -3.500519 3.500518
											CHANNELS 3 Xrotation Yrotation Zrotation
											JOINT mixamorig:LeftHandThumb4
											{
												OFFSET 4.793182 -2.767334 2.767349
												CHANNELS 3 Xrotation Yrotation Zrotation
												End Site
												{
													OFFSET 0.101639 6.054260 1.275483
												}
											}
										}
									}
								}
								JOINT mixamorig:LeftHandIndex1
								{
									OFFSET 23.101074 -0.309540 4.992809
									CHANNELS 3 Xrotation Yrotation Zrotation
									JOINT mixamorig:LeftHandIndex2
									{
										OFFSET 6.226883 0.000000 0.000000
										CHANNELS 3 Xrotation Yrotation Zrotation
										JOINT mixamorig:LeftHandIndex3
										{
											OFFSET 6.094330 0.000000 0.000000
											CHANNELS 3 Xrotation Yrotation Zrotation
											JOINT mixamorig:LeftHandIndex4
											{
												OFFSET 5.482605 0.000000 0.000000
												CHANNELS 3 Xrotation Yrotation Zrotation
												End Site
												{
													OFFSET -1.427902 5.233032 0.797164
												}
											}
										}
									}
								}
								JOINT mixamorig:LeftHandRing1
								{
									OFFSET 22.299240 0.021149 -3.964172
									CHANNELS 3 Xrotation Yrotation Zrotation
									JOINT mixamorig:LeftHandRing2
									{
										OFFSET 6.321869 0.000000 0.000000
										CHANNELS 3 Xrotation Yrotation Zrotation
										JOINT mixamorig:LeftHandRing3
										{
											OFFSET 5.899796 0.000000 0.000000
											CHANNELS 3 Xrotation Yrotation Zrotation
											JOINT mixamorig:LeftHandRing4
											{
												OFFSET 6.517899 0.000000 0.000000
												CHANNELS 3 Xrotation Yrotation Zrotation
												End Site
												{
													OFFSET -1.637299 6.232208 0.980890
												}
											}
										}
									}
								}
								JOINT mixamorig:LeftHandPinky1
								{
									OFFSET 20.463791 -0.302338 -8.562233
									CHANNELS 3 Xrotation Yrotation Zrotation
									JOINT mixamorig:LeftHandPinky2
									{
										OFFSET 6.908646 0.000000 0.000000
										CHANNELS 3 Xrotation Yrotation Zrotation
										JOINT mixamorig:LeftHandPinky3
										{
											OFFSET 4.622849 0.000000 0.000000
											CHANNELS 3 Xrotation Yrotation Zrotation
											JOINT mixamorig:LeftHandPinky4
											{
												OFFSET 5.216080 0.000000 0.000000
												CHANNELS 3 Xrotation Yrotation Zrotation
												End Site
												{
													OFFSET -0.606308 5.116241 0.814926
												}
											}
										}
									}
								}
							}
						}
					}
				}
				JOINT mixamorig:RightShoulder
				{
					OFFSET -12.001300 18.284088 1.348900
					CHANNELS 3 Xrotation Yrotation Zrotation
					JOINT mixamorig:RightArm
					{
						OFFSET -25.308500 -0.751312 -5.164599
						CHANNELS 3 Xrotation Yrotation Zrotation
						JOINT mixamorig:RightForeArm
						{
							OFFSET -54.684429 0.000000 0.000000
							CHANNELS 3 Xrotation Yrotation Zrotation
							JOINT mixamorig:RightHand
							{
								OFFSET -55.150291 0.000000 0.000000
								CHANNELS 3 Xrotation Yrotation Zrotation
								JOINT mixamorig:RightHandMiddle1
								{
									OFFSET -23.317566 0.000000 0.000000
									CHANNELS 3 Xrotation Yrotation Zrotation
									JOINT mixamorig:RightHandMiddle2
									{
										OFFSET -6.378403 0.000000 0.000000
										CHANNELS 3 Xrotation Yrotation Zrotation
										JOINT mixamorig:RightHandMiddle3
										{
											OFFSET -6.148193 0.000000 0.000000
											CHANNELS 3 Xrotation Yrotation Zrotation
											JOINT mixamorig:RightHandMiddle4
											{
												OFFSET -6.583389 0.000000 0.000000
												CHANNELS 3 Xrotation Yrotation Zrotation
												End Site
												{
													OFFSET 1.171692 6.395905 1.029786
												}
											}
										}
									}
								}
								JOINT mixamorig:RightHandThumb1
								{
									OFFSET -7.190521 -3.860474 5.435846
									CHANNELS 3 Xrotation Yrotation Zrotation
									JOINT mixamorig:RightHandThumb2
									{
										OFFSET -6.567429 -3.791718 3.791708
										CHANNELS 3 Xrotation Yrotation Zrotation
										JOINT mixamorig:RightHandThumb3
										{
											OFFSET -6.062469 -3.500153 3.500166
											CHANNELS 3 Xrotation Yrotation Zrotation
											JOINT mixamorig:RightHandThumb4
											{
												OFFSET -4.792618 -2.767029 2.767022
												CHANNELS 3 Xrotation Yrotation Zrotation
												End Site
												{
													OFFSET -0.100327 6.053253 1.276754
												}
											}
										}
									}
								}
								JOINT mixamorig:RightHandIndex1
								{
									OFFSET -23.048981 -0.310791 4.992554
									CHANNELS 3 Xrotation Yrotation Zrotation
									JOINT mixamorig:RightHandIndex2
									{
										OFFSET -6.227539 0.000000 0.000000
										CHANNELS 3 Xrotation Yrotation Zrotation
										JOINT mixamorig:RightHandIndex3
										{
											OFFSET -6.095047 0.000000 0.000000
											CHANNELS 3 Xrotation Yrotation Zrotation
											JOINT mixamorig:RightHandIndex4
											{
												OFFSET -5.484772 0.000000 0.000000
												CHANNELS 3 Xrotation Yrotation Zrotation
												End Site
												{
													OFFSET 1.420593 5.237305 0.797056
												}
											}
										}
									}
								}
								JOINT mixamorig:RightHandRing1
								{
									OFFSET -22.246323 0.020569 -3.963762
									CHANNELS 3 Xrotation Yrotation Zrotation
									JOINT mixamorig:RightHandRing2
									{
										OFFSET -6.322128 0.000000 0.000000
										CHANNELS 3 Xrotation Yrotation Zrotation
										JOINT mixamorig:RightHandRing3
										{
											OFFSET -5.900024 0.000000 0.000000
											CHANNELS 3 Xrotation Yrotation Zrotation
											JOINT mixamorig:RightHandRing4
											{
												OFFSET -6.518356 0.000000 0.000000
												CHANNELS 3 Xrotation Yrotation Zrotation
												End Site
												{
													OFFSET 1.636398 6.232697 0.982186
												}
											}
										}
									}
								}
								JOINT mixamorig:RightHandPinky1
								{
									OFFSET -20.411011 -0.303314 -8.561701
									CHANNELS 3 Xrotation Yrotation Zrotation
									JOINT mixamorig:RightHandPinky2
									{
										OFFSET -6.907349 0.000000 0.000000
										CHANNELS 3 Xrotation Yrotation Zrotation
										JOINT mixamorig:RightHandPinky3
										{
											OFFSET -4.623840 0.000000 0.000000
											CHANNELS 3 Xrotation Yrotation Zrotation
											JOINT mixamorig:RightHandPinky4
											{
												OFFSET -5.218353 0.000000 0.000000
												CHANNELS 3 Xrotation Yrotation Zrotation
												End Site
												{
													OFFSET 0.602097 5.118835 0.816273
												}
											}
										}
									}
								}
							}
						}
					}
				}
			}
		}
	}
	JOINT mixamorig:LeftUpLeg
	{
		OFFSET 18.168400 -13.561905 -0.039000
		CHANNELS 3 Xrotation Yrotation Zrotation
		JOINT mixamorig:LeftLeg
		{
			OFFSET 0.577358 -80.825211 -3.695000
			CHANNELS 3 Xrotation Yrotation Zrotation
			JOINT mixamorig:LeftFoot
			{
				OFFSET -0.577356 -83.370262 -6.520700
				CHANNELS 3 Xrotation Yrotation Zrotation
				JOINT mixamorig:LeftToeBase
				{
					OFFSET 0.750401 -20.798306 25.135401
					CHANNELS 3 Xrotation Yrotation Zrotation
					JOINT mixamorig:LeftToe_End
					{
						OFFSET -0.000500 0.001200 19.917799
						CHANNELS 3 Xrotation Yrotation Zrotation
						End Site
						{
							OFFSET 0.000000 19.917805 0.000000
						}
					}
				}
			}
		}
	}
	JOINT mixamorig:RightUpLeg
	{
		OFFSET -18.162500 -13.585098 -0.041000
		CHANNELS 3 Xrotation Yrotation Zrotation
		JOINT mixamorig:RightLeg
		{
			OFFSET -0.595024 -80.945297 -3.631900
			CHANNELS 3 Xrotation Yrotation Zrotation
			JOINT mixamorig:RightFoot
			{
				OFFSET 0.595024 -83.218193 -6.561200
				CHANNELS 3 Xrotation Yrotation Zrotation
				JOINT mixamorig:RightToeBase
				{
					OFFSET -0.753601 -20.807106 25.115000
					CHANNELS 3 Xrotation Yrotation Zrotation
					JOINT mixamorig:RightToe_End
					{
						OFFSET 0.000299 0.001700 19.918200
						CHANNELS 3 Xrotation Yrotation Zrotation
						End Site
						{
							OFFSET 0.000000 19.918203 0.000000
						}
					}
				}
			}
		}
	}
}
MOTION
Frames: 6
Frame Time: 0.033333
-0.235012 200.169632 0.128513 1.797506 -7.376571 -0.210544 0.004021 0.191559 0.264307 0.007237 0.380621 0.514352 0.007236 0.380623 0.514352 13.395357 2.639222 -2.896511 -10.351989 -5.666136 3.003430 -0.000000 0.000000 0.000000 -0.000000 0.000000 0.000000 -0.000000 0.000000 0.000000 2.412268 -0.626915 -4.046158 18.826517 -36.726545 -64.798449 -3.287212 -25.471252 -0.424757 -9.934750 -3.940645 8.705132 -5.531975 7.027273 -27.856255 -0.284997 -1.577437 -19.685170 -0.000005 -0.000008 -0.000008 0.000002 -0.000001 0.000000 2.153200 2.328650 12.225661 2.018021 18.442935 -6.232590 0.000007 0.000013 0.000004 -0.000002 -0.000000 0.000000 -5.942254 8.665884 -18.348555 0.168496 0.516554 -29.759011 0.000002 0.000010 0.000003 0.000001 0.000000 0.000000 -7.787540 4.220231 -25.419857 -0.770173 -2.644364 -32.830602 -0.000006 -0.000009 -0.000005 0.000002 0.000001 0.000001 -1.630996 0.277044 -20.581766 -2.347066 -5.097041 -49.519374 -0.000004 -0.000005 0.000006 -0.000002 0.000001 0.000004 4.202768 5.112452 2.974618 18.751241 35.056110 61.971017 -9.517548 26.751686 -0.404469 -0.081321 -4.836753 -2.689877 -5.108137 1.023757 16.930022 -0.530113 1.846872 31.391041 0.000002 0.000001 -0.000001 0.000000 0.000001 -0.000001 -19.621597 -1.996841 -9.786133 7.317435 -17.694693 4.011924 0.000003 0.000004 -0.000020 -0.000001 0.000002 0.000002 -11.309904 -1.253638 21.418304 0.122069 -0.696243 17.177079 -0.000001 -0.000002 -0.000003 0.000001 0.000001 -0.000000 -14.428355 -3.660093 20.333302 -1.585709 3.972384 39.979232 0.000000 0.000001 -0.000006 0.000000 0.000000 0.000000 -3.449035 5.908341 27.349462 -1.729073 5.621376 34.439374 0.000005 -0.000006 -0.000003 -0.000001 0.000000 -0.000002 -6.935069 -6.954455 4.102054 11.266565 -0.214035 -0.108608 -5.057269 14.104125 -4.268607 -0.406511 -0.026848 0.063539 0.000000 -0.000000 -0.000000 -12.684788 -13.583382 -5.161746 13.264417 0.035789 0.232267 -2.462135 -1.902846 2.723211 -0.088066 -0.109913 0.148473 -0.000000 -0.000000 -0.000000 
-0.260872 200.145355 -0.091754 1.651669 -7.271127 -0.215612 0.015032 0.190098 0.263343 0.029261 0.377794 0.513636 0.029262 0.377789 0.513636 13.466468 2.632634 -2.897742 -10.192892 -5.695112 2.990757 -0.000000 -0.000001 0.000000 -0.000000 -0.000001 0.000000 -0.000000 -0.000001 0.000000 2.411747 -0.623936 -4.038482 18.999969 -36.718913 -64.685662 -3.289020 -25.696377 -0.428992 -10.154432 -3.820389 8.670118 -4.540829 5.410997 -31.160320 -0.286223 -1.580824 -19.729485 -0.000005 -0.000004 -0.000009 0.000001 -0.000000 0.000001 3.723143 4.983992 7.229350 2.037616 18.491074 -6.246173 0.000010 0.000015 0.000004 -0.000008 0.000001 -0.000000 -5.428709 8.505146 -20.837317 0.168718 0.516875 -29.782989 0.000004 0.000007 0.000007 0.000006 -0.000001 -0.000001 -7.931387 4.448083 -27.792774 -0.767288 -2.639933 -32.768550 -0.000004 -0.000005 -0.000007 -0.000002 -0.000001 -0.000001 -2.042981 1.326779 -26.641262 -2.514631 -5.052404 -51.703846 -0.000002 0.000000 0.000004 -0.000004 0.000001 0.000003 4.209859 5.103838 2.915974 18.942369 35.059211 61.923137 -9.494175 27.003522 -0.418181 -0.076210 -4.970239 -2.604867 -5.114833 1.006281 17.042487 -0.530475 1.847649 31.404773 0.000003 0.000001 0.000003 0.000001 0.000003 0.000002 -19.431600 -2.292179 -9.350073 7.250591 -17.577572 3.991359 -0.000004 0.000003 -0.000019 0.000001 -0.000001 0.000000 -11.314704 -1.286356 21.533128 0.121805 -0.695710 17.161566 -0.000002 -0.000002 -0.000003 -0.000000 -0.000001 -0.000004 -14.426642 -3.701259 20.488785 -1.588442 3.975631 40.018563 -0.000002 0.000002 -0.000000 0.000000 -0.000000 -0.000003 -3.476978 5.936462 27.431394 -1.728080 5.620003 34.429570 0.000000 -0.000001 -0.000004 0.000003 -0.000002 -0.000001 -6.960918 -7.042954 4.086670 11.447138 -0.231041 -0.113985 -5.066762 14.101296 -4.290870 -0.401836 -0.026246 0.066854 -0.000000 -0.000000 -0.000000 -12.688357 -13.641098 -5.195584 13.443291 0.043409 0.236198 -2.502600 -1.958867 2.688748 -0.077412 -0.109597 0.130480 -0.000000 -0.000001 -0.000000 
-0.286356 200.103897 -0.392225 1.505863 -7.163335 -0.210100 0.044976 0.188772 0.261755 0.089151 0.375297 0.512511 0.089151 0.375293 0.512511 13.505202 2.627086 -2.925837 -10.228330 -5.727037 2.990700 0.000000 0.000000 0.000000 0.000000 0.000000 0.000000 0.000000 0.000000 0.000000 2.408951 -0.655305 -4.092193 18.898269 -36.667847 -64.680519 -3.291093 -25.932869 -0.433419 -10.200534 -3.826648 8.755479 -3.668915 3.580656 -34.786345 -0.286571 -1.581110 -19.734344 -0.000004 -0.000005 -0.000004 0.000002 0.000000 -0.000001 5.312247 7.641189 1.663376 2.148814 18.776497 -6.327885 0.000012 0.000014 0.000003 -0.000001 0.000000 0.000001 -4.863175 8.413311 -23.888481 0.169518 0.518244 -29.879906 -0.000001 0.000008 0.000005 0.000001 -0.000001 0.000002 -8.082188 4.678846 -30.450527 -0.771336 -2.646149 -32.855611 -0.000007 -0.000009 -0.000013 -0.000006 0.000001 0.000002 -2.235899 2.392185 -33.036788 -2.697707 -4.997159 -54.118878 -0.000001 -0.000002 0.000004 0.000003 -0.000001 0.000001 4.212878 5.126833 2.844464 19.056720 35.170317 61.869855 -9.489476 27.241147 -0.426418 -0.256307 -5.071655 -2.650579 -5.130573 1.045569 17.127514 -0.537137 1.858540 31.611451 0.000001 0.000004 0.000001 0.000003 0.000002 -0.000003 -18.921116 -3.159780 -8.357256 7.173894 -17.440839 3.966608 0.000003 0.000004 -0.000021 -0.000002 0.000001 0.000001 -11.308933 -1.318176 21.469265 0.122528 -0.697010 17.200001 0.000002 -0.000003 -0.000005 -0.000000 -0.000000 -0.000004 -14.448582 -3.639599 20.615287 -1.592979 3.981232 40.085865 -0.000003 0.000001 -0.000003 0.000002 -0.000001 0.000002 -3.538309 6.021982 27.546896 -1.739232 5.635944 34.542807 0.000005 -0.000001 -0.000001 0.000004 0.000001 0.000001 -7.059738 -7.262812 4.039888 11.728996 -0.276365 -0.125537 -5.099483 14.250041 -4.306991 -0.394033 -0.024653 0.065732 -0.000000 0.000000 -0.000000 -12.758720 -13.666307 -5.256962 13.719745 0.028268 0.249297 -2.576582 -1.998013 2.652594 -0.087898 -0.106239 0.148175 -0.000000 0.000000 0.000000 
-0.337364 200.049103 -0.756762 1.282911 -7.013137 -0.222598 0.109522 0.185668 0.260851 0.218249 0.369429 0.512102 0.218250 0.369426 0.512102 13.520678 2.627505 -2.954502 -10.373392 -5.733493 3.020499 -0.000001 -0.000000 -0.000000 -0.000001 -0.000000 -0.000000 -0.000001 -0.000000 -0.000000 2.404715 -0.726740 -4.173373 18.797196 -36.662970 -64.564740 -3.295323 -26.388299 -0.441989 -9.905793 -3.865131 8.961492 -2.991623 1.626717 -38.536832 -0.281284 -1.566528 -19.544504 -0.000008 -0.000007 -0.000003 -0.000000 -0.000001 -0.000002 6.905260 10.132159 -4.456840 2.255438 19.082333 -6.411351 0.000010 0.000011 0.000003 0.000005 0.000002 0.000001 -4.237743 8.304143 -27.690360 0.169434 0.518061 -29.867085 0.000005 0.000009 0.000004 -0.000000 -0.000000 -0.000001 -8.229546 4.944148 -33.079163 -0.772536 -2.647964 -32.881337 -0.000008 -0.000008 -0.000008 -0.000002 0.000003 0.000003 -2.153111 3.576933 -39.824985 -2.883761 -4.922783 -56.619027 -0.000002 -0.000003 0.000003 0.000000 0.000002 0.000001 4.215784 5.156252 2.763247 19.270523 35.357024 61.722084 -9.473554 27.875486 -0.444083 -0.412048 -5.260820 -2.955772 -5.158628 1.123559 17.269905 -0.545861 1.872183 31.872408 0.000004 0.000000 -0.000004 0.000002 0.000001 0.000002 -18.220911 -4.357921 -6.506665 6.922158 -16.966883 3.876570 0.000001 0.000002 -0.000022 0.000001 -0.000001 -0.000000 -11.303843 -1.269246 21.335815 0.123087 -0.698152 17.233109 -0.000002 -0.000002 -0.000002 0.000002 -0.000001 -0.000002 -14.472710 -3.542236 20.637060 -1.602326 3.992309 40.220723 0.000003 0.000002 0.000007 -0.000005 0.000002 0.000002 -3.622595 6.128980 27.738836 -1.757549 5.661868 34.727612 0.000008 -0.000001 -0.000004 0.000001 0.000001 0.000001 -7.142059 -7.476433 4.012180 12.092601 -0.324871 -0.135388 -5.153458 14.335763 -4.343152 -0.415900 -0.022184 0.065362 -0.000000 -0.000000 0.000000 -12.794152 -13.734383 -5.312519 14.054868 0.030362 0.258552 -2.671016 -2.022227 2.602593 -0.119404 -0.108156 0.201349 -0.000000 0.000000 -0.000000 
-0.426616 199.972458 -1.119718 0.910755 -6.825019 -0.269892 0.184140 0.183636 0.257957 0.367499 0.365725 0.506929 0.367500 0.365725 0.506930 13.581687 2.630834 -2.935917 -10.126051 -5.723018 3.059302 0.000000 -0.000000 0.000000 0.000000 -0.000000 0.000000 0.000000 -0.000000 0.000000 2.407241 -0.724367 -4.113942 19.330742 -36.660347 -64.100369 -3.304484 -27.397255 -0.461552 -9.661813 -3.682206 9.304464 -2.562390 -0.328945 -42.225722 -0.274830 -1.550152 -19.328746 -0.000004 -0.000005 -0.000006 0.000002 0.000001 0.000003 8.519623 12.340396 -10.830828 2.160342 18.873621 -6.345001 0.000010 0.000013 0.000006 -0.000002 -0.000001 0.000000 -3.575648 8.007980 -32.128247 0.167935 0.515329 -29.673856 0.000005 0.000006 0.000006 -0.000002 -0.000001 0.000001 -8.349664 5.335007 -35.511427 -0.760407 -2.629225 -32.618641 -0.000000 -0.000004 -0.000003 -0.000003 -0.000001 -0.000001 -1.736081 5.000232 -47.384164 -3.059271 -4.826491 -59.043755 -0.000004 -0.000001 0.000002 -0.000001 -0.000003 0.000001 4.242939 5.099039 2.569664 19.933538 35.541241 61.486476 -9.397797 29.232352 -0.502088 -0.437778 -5.597211 -3.466777 -5.228039 1.147819 17.988567 -0.549973 1.878289 31.990035 0.000007 0.000000 0.000002 -0.000001 0.000002 0.000002 -17.500495 -5.449431 -3.575103 6.359984 -15.904056 3.682883 0.000001 0.000002 -0.000021 0.000000 -0.000002 -0.000001 -11.339176 -1.159295 21.832693 0.121181 -0.694361 17.122190 0.000001 -0.000004 -0.000006 -0.000004 0.000001 -0.000001 -14.463933 -3.649114 21.016195 -1.631545 4.026086 40.635121 -0.000002 0.000000 0.000002 0.000000 0.000001 0.000003 -3.747329 6.193340 28.285702 -1.774113 5.685436 34.895286 0.000005 -0.000002 -0.000002 0.000000 0.000002 -0.000000 -7.125155 -7.528766 4.039430 12.562713 -0.360277 -0.143356 -5.271793 14.185323 -4.406620 -0.447004 -0.023583 0.062375 -0.000000 0.000000 0.000000 -12.735377 -13.851095 -5.330188 14.484736 0.057514 0.245828 -2.806159 -2.097089 2.529145 -0.109808 -0.119493 0.185236 0.000000 0.000000 -0.000000 
-0.520143 199.809006 -1.483182 0.484480 -6.719021 -0.306893 0.203338 0.195488 0.248020 0.405870 0.389496 0.489129 0.405869 0.389495 0.489130 13.717533 2.615631 -2.887704 -9.012892 -5.791218 3.059472 0.000000 -0.000001 0.000000 0.000000 -0.000001 0.000000 0.000000 -0.000001 0.000000 2.429087 -0.425736 -3.735747 20.927797 -36.368421 -63.461268 -3.323511 -29.431063 -0.503211 -10.658000 -3.083351 9.989942 -2.402287 -2.181738 -45.743409 -0.285773 -1.581698 -19.737058 -0.000007 -0.000006 -0.000006 -0.000001 -0.000004 -0.000001 10.073055 14.112325 -16.971468 1.671983 17.499650 -5.969272 0.000004 0.000013 0.000006 0.000001 -0.000001 0.000001 -2.943964 7.304761 -36.480939 0.167017 0.513672 -29.558310 0.000001 0.000009 0.000011 -0.000001 -0.000004 -0.000001 -8.414478 5.940228 -37.948514 -0.735887 -2.590693 -32.081187 -0.000005 -0.000009 -0.000003 0.000001 0.000001 0.000002 -0.925932 6.564598 -56.108679 -3.220263 -4.715473 -61.334607 -0.000001 -0.000004 0.000002 -0.000001 -0.000002 0.000000 4.327114 4.834577 2.044931 21.221676 35.654540 61.463021 -9.235505 31.152677 -0.633140 -0.813937 -5.866842 -3.967411 -5.375945 1.002622 19.993753 -0.551137 1.880725 32.033174 0.000007 -0.000000 0.000001 0.000001 0.000001 0.000003 -16.859523 -6.034429 0.366152 5.494085 -14.269957 3.407836 -0.000001 0.000003 -0.000021 -0.000003 0.000000 0.000001 -11.469761 -1.110842 23.906622 0.115961 -0.681712 16.762626 -0.000003 -0.000003 -0.000005 0.000003 -0.000000 -0.000001 -14.389300 -4.222637 22.651170 -1.710883 4.116138 41.749343 0.000002 0.000001 -0.000006 -0.000000 0.000000 0.000003 -3.934916 6.135907 29.555537 -1.786927 5.704119 35.026942 0.000008 -0.000001 -0.000002 -0.000001 -0.000003 -0.000003 -7.250888 -7.518138 4.046141 13.438741 -0.411962 -0.175179 -5.604818 14.065161 -4.453090 -0.402619 -0.032298 0.061552 0.000000 0.000000 -0.000000 -12.857575 -13.900144 -5.401067 15.333155 0.097102 0.244768 -3.130167 -2.255288 2.435043 -0.012246 -0.120953 0.020656 -0.000000 -0.000001 0.000000 
